<?xml version="1.0" encoding="UTF-8"?>
<!DOCTYPE svg PUBLIC "-//W3C//DTD SVG 1.1//EN" "http://www.w3.org/Graphics/SVG/1.1/DTD/svg11.dtd">
<!-- Creator: CorelDRAW -->
<svg xmlns="http://www.w3.org/2000/svg" xml:space="preserve" width="64px" height="64px" shape-rendering="geometricPrecision" text-rendering="geometricPrecision" image-rendering="optimizeQuality" fill-rule="evenodd" clip-rule="evenodd"
viewBox="0 0 640 640"
 xmlns:xlink="http://www.w3.org/1999/xlink">
 <g id="Layer_x0020_1">
  <metadata id="CorelCorpID_0Corel-Layer"/>
  <path fill="black" d="M626.689 15.4136l0 0zm-55.6542 574.472l0 0.0118112 -111.533 0 -0.165356 0c-2.09058,0 -3.79139,-1.689 -3.79139,-3.76776l0 -169.16 -0.0118112 -0.50788c0,-4.70085 -0.862215,-8.59853 -2.57483,-11.5868 -0.318902,-0.543314 -0.685048,-1.09844 -1.05119,-1.61813 -0.366146,-0.472447 -0.791348,-0.968516 -1.22836,-1.39372l-0.106301 -0.129923c-1.57089,-1.55907 -3.54335,-2.76381 -5.85834,-3.5906l-1.28742 -0.389769 -0.20079 -0.070867 -0.0354335 0c-2.14963,-0.578747 -4.57092,-0.874027 -7.20481,-0.885838l-0.0118112 0 -0.070867 0 -0.177168 0 -0.40158 -0.0118112 -230.885 0 -0.129923 0 -0.0472447 0c-4.61817,0 -8.43317,0.885838 -11.3505,2.52759l-0.0944894 0.070867 -1.38191 0.874027 -0.212601 0.188979c-0.484258,0.354335 -0.956705,0.791348 -1.39372,1.19293l-0.0826782 0.0944894 -0.0354335 0.0354335c-3.21264,3.27169 -4.81896,8.19695 -4.81896,14.7049l-0.0236223 0.20079 0 169.455 -0.0118112 0c0,2.07877 -1.72443,3.75595 -3.77957,3.75595l-63.7213 0 -0.153545 0c-0.956705,0 -1.93703,-0.354335 -2.68114,-1.11025l-62.9063 -62.8945c-0.921271,-0.720481 -1.51183,-1.83073 -1.51183,-3.08272l0 -453.324 -0.0236223 -0.40158c0,-4.32289 0.779537,-7.94892 2.29137,-10.7954l0.0118112 0c0.283468,-0.555125 0.578747,-1.01576 0.897649,-1.50002l0.129923 -0.165356c0.354335,-0.519691 0.803159,-1.06301 1.29923,-1.53545l0.0472447 -0.0826782 0.129923 -0.129923 0.0118112 0 0 0c1.32285,-1.32285 2.9646,-2.35042 4.81896,-3.09453l0.188979 -0.0944894 0.0944894 -0.0354335 0.0826782 -0.0590558 0.944894 -0.318902 0 0.0118112 0.070867 -0.0354335c2.19688,-0.70867 4.71266,-1.05119 7.5119,-1.11025l0.460636 -0.0354335 0.271657 0 0.0118112 0 53.918 0c2.07877,0 3.79139,1.689 3.79139,3.76776l0 227.436c0,2.72838 0.236223,5.35046 0.696859,7.79537 0.437013,2.38586 1.12206,4.74809 2.01971,6.99221l0.070867 0.106301 0.0118112 0.0354335 0 0.0118112c0.933082,2.23231 2.10239,4.46462 3.47248,6.51977 1.34647,2.01971 2.89374,4.02761 4.71266,5.90558l0.118112 0.0944894 0.0236223 0.0354335 0.0354335 0.0118112c2.59846,2.69295 5.44495,4.90164 8.43317,6.63788l0.0590558 0.0118112 0.070867 0.0236223 0.070867 0.0354335 0 0 1.67719 0.885838 0.0236223 0.0118112 2.09058 0.933082 0 0.0118112 0.0354335 0.0118112 0.0118112 0.0118112 0.0354335 0 0 0.0118112c1.71262,0.70867 3.47248,1.34647 5.23235,1.78349l0.0354335 0 0.165356 0.0236223 0.0472447 0.0118112 0.0826782 0 0.0944894 0 1.34647 0.283468 0 0.0118112c2.36223,0.448824 4.85439,0.70867 7.38198,0.732292l0.106301 -0.0118112 0.366146 0 308.815 0c5.38589,0 10.323,-0.933082 14.8466,-2.78744l0.070867 -0.0472447c4.53549,-1.86616 8.68121,-4.67722 12.4726,-8.42136l0.141734 -0.177168c1.86616,-1.87798 3.57878,-3.9095 4.99612,-6.0237 1.38191,-2.03152 2.52759,-4.15753 3.44886,-6.3426l0.0118112 -0.0590558 0.0354335 -0.0590558 0.0354335 -0.118112c0.944894,-2.25593 1.67719,-4.60636 2.13782,-6.9804l0.0236223 -0.141734c0.460636,-2.45672 0.685048,-5.06699 0.685048,-7.77175l0 -227.188 0 -0.236223c0,-2.07877 1.72443,-3.77957 3.82682,-3.77957l53.6818 0 0.0826782 0c3.04728,0 5.69298,0.366146 8.00797,1.07482 2.49216,0.779537 4.61817,2.03152 6.25992,3.67327 1.34647,1.33466 2.4331,3.02366 3.18902,4.9725l-0.0236223 0.0118112 0.070867 0.0944894 0.318902 0.90946 -0.0236223 0 0.0590558 0.129923c0.720481,2.13782 1.05119,4.6536 1.11025,7.4056l0.0472447 0.448824 0 0.283468 -0.0236223 0.0826782 0 501.727c0,2.90555 -0.377957,5.58668 -1.07482,7.85443l-0.0590558 0.165356 0 0.0118112 -0.0118112 0.118112 -0.413391 1.12206 -0.0118112 0 -0.118112 0.295279 -0.472447 1.03938 0 0 -0.070867 0.20079 -0.129923 0.212601 -0.0118112 -0.0118112 -0.153545 0.30709 -0.755915 1.16931 -0.0118112 0 -0.259846 0.40158 -0.732292 0.897649 -0.318902 0.354335c-0.767726,0.814971 -1.70081,1.55907 -2.74019,2.18507 -0.850404,0.496069 -1.83073,0.980327 -2.88193,1.35828l-0.330713 0.118112c-0.838593,0.283468 -1.75986,0.519691 -2.74019,0.720481l-0.0944894 0.0118112 -0.0590558 0.0118112 -0.0944894 0.0236223 -0.448824 0.070867 -0.106301 0.0236223 -0.0236223 0 -0.0826782 0.0118112c-1.16931,0.165356 -2.5394,0.283468 -3.95674,0.30709l-0.106301 0 -0.070867 0 -0.519691 0zm-103.123 -538.731l-296.248 -1.06301 0 212.294 0 0.0354335 -0.0236223 0c0,2.38586 0.295279,4.46462 0.885838,6.27173l0 0c0.153545,0.295279 0.224412,0.543314 0.342524,0.779537 0.519691,1.22836 1.21655,2.26774 2.07877,3.15358l0.153545 0.141734 0 0.0118112 0 0c0.295279,0.295279 0.590558,0.543314 0.874027,0.767726 0.30709,0.259846 0.696859,0.496069 1.06301,0.70867 2.05514,1.19293 4.79533,1.75986 8.23238,1.75986l0 0.0118112 268.999 1.31104 0 -0.0118112 0.0236223 0 0 0.0118112c4.72447,0 8.19695,-1.09844 10.3466,-3.30713 2.18507,-2.2205 3.2835,-5.71661 3.29532,-10.5356l-0.0236223 0 0 -0.0472447 0 -212.294zm-246.735 375.347l79.2293 0 0 0.0236223c1.84254,0 3.37799,1.50002 3.37799,3.34256l0 156.581 0 0.0826782c0,1.84254 -1.53545,3.36618 -3.37799,3.36618l-79.2293 0 0 -0.0118112c-1.83073,0 -3.36618,-1.51183 -3.36618,-3.35437l0 -156.297 0 -0.366146c0,-1.84254 1.53545,-3.36618 3.36618,-3.36618zm405.596 197.672l0 0zm-576.149 -622l543.55 0c6.35441,0 12.2364,1.12206 17.6695,3.34256l2.6457 1.16931c4.39375,2.13782 8.46861,5.06699 12.2718,8.79932l3.38981 3.85044 2.92917 4.07485c4.59454,7.21662 6.93316,15.4254 6.93316,24.5909l0 543.538c0,6.33079 -1.12206,12.2246 -3.35437,17.6931 -2.20869,5.44495 -5.51582,10.4175 -9.92138,14.9884 -2.42129,2.46853 -5.01975,4.5473 -7.7245,6.31898l-1.32285 0.885838c-1.86616,1.15749 -3.82682,2.16144 -5.82291,2.98823 -5.45676,2.29137 -11.3505,3.41343 -17.7049,3.41343l-501.892 0 -1.7953 0 -1.27561 -1.28742 -83.5758 -83.5758 -5.48038 -3.63784 0 -501.479c-1.84254,-20.3034 14.5395,-39.9572 32.7642,-42.3549 5.46857,-2.20869 11.3742,-3.31894 17.7168,-3.31894z"/>
 </g>
</svg>
